<svg fill="none" height="100%" width="100%" viewBox="0 0 500 500" xmlns:xlink="http://www.w3.org/1999/xlink" xmlns="http://www.w3.org/2000/svg"><g transform="matrix(1,0,0,1,57.277,117.454)" id="i0"><g id="i1"><path stroke-linecap="round" stroke-width="25.267" stroke="#000000" d="M82.963,242C85.102,194.862,-5.756,227.254,16.518,166" /></g><g id="i2"><path stroke-width="0.901" stroke="#000000" fill="#000000" d="M293.52,265.092C293.52,265.092,48.447,265.092,48.447,265.092C48.447,265.092,116.923,2,116.923,2C116.923,2,138.547,54.258,138.547,54.258C173.146,41.284,196.211,48.852,203.419,54.258C203.419,54.258,230.449,2,230.449,2C230.449,2,293.52,265.092,293.52,265.092C293.52,265.092,293.52,265.092,293.52,265.092Z" /></g></g><g id="i3"><g transform="translate(229,217)"><animateTransform repeatCount="indefinite" type="translate" attributeName="transform" dur="5s" begin="0s" calcMode="spline" values="229 217; 242 218; 242 218; 229 217; 229 217" keyTimes="0; 0.2; 0.4; 0.6; 1" keySplines="0 0 1 1; 0 0 1 1; 0 0 1 1; 0 0 1 1" fill="freeze" /><g transform="translate(-35,-27.829)"><g><g transform="translate(48.417,7.075)"><g transform="scale(1,1)"><animateTransform repeatCount="indefinite" type="scale" attributeName="transform" dur="5s" begin="0s" calcMode="spline" values="1 1; 1 0.14; 1 1; 1 1; 1 0.14; 1 1; 1 1; 1 0.14; 1 1; 1 1" keyTimes="0; 0.08; 0.16; 0.4; 0.48; 0.56; 0.8; 0.88; 0.96; 1" keySplines="0 0 1 1; 0 0 1 1; 0 0 1 1; 0 0 1 1; 0 0 1 1; 0 0 1 1; 0 0 1 1; 0 0 1 1; 0 0 1 1" fill="freeze" /><g id="i4" transform="translate(-48.417,-7.075)"><ellipse ry="6.417" rx="6.417" cy="7.075" cx="48.417" fill="#ffffff" /></g></g></g></g><g><g transform="translate(19.417,7.075)"><g transform="scale(1,1)"><animateTransform repeatCount="indefinite" type="scale" attributeName="transform" dur="5s" begin="0s" calcMode="spline" values="1 1; 1 0.14; 1 1; 1 1; 1 0.14; 1 1; 1 1; 1 0.14; 1 1; 1 1" keyTimes="0; 0.08; 0.16; 0.4; 0.48; 0.56; 0.8; 0.88; 0.96; 1" keySplines="0 0 1 1; 0 0 1 1; 0 0 1 1; 0 0 1 1; 0 0 1 1; 0 0 1 1; 0 0 1 1; 0 0 1 1; 0 0 1 1" fill="freeze" /><g id="i5" transform="translate(-19.417,-7.075)"><ellipse ry="6.417" rx="6.417" cy="7.075" cx="19.417" fill="#ffffff" /></g></g></g></g><g id="i1"><path fill="#ffffff" d="M35,50.017C31.29,53.096,26.163,55,20.5,55C9.178,55,0,47.389,0,38C0,28.611,9.178,21,20.5,21C26.163,21,31.29,22.904,35,25.983C38.71,22.904,43.837,21,49.5,21C60.822,21,70,28.611,70,38C70,47.389,60.822,55,49.5,55C43.837,55,38.71,53.096,35,50.017C35,50.017,35,50.017,35,50.017Z" /></g><g id="i2"><path fill="#ec51ef" d="M41.076,22C41.076,22,29.004,22,29.004,22C28.179,22,27.709,22.942,28.205,23.601C28.205,23.601,34.449,31.901,34.449,31.901C34.857,32.444,35.676,32.43,36.066,31.874C36.066,31.874,41.894,23.575,41.894,23.575C42.36,22.912,41.886,22,41.076,22C41.076,22,41.076,22,41.076,22Z" /></g></g></g></g><g id="i6"><g transform="translate(250,321.5)"><animateTransform repeatCount="indefinite" type="translate" attributeName="transform" dur="5s" begin="0s" calcMode="spline" values="250 321.5; 250 361; 250 321.5; 250 361; 250 321.5; 250 361; 250 321.5; 250 361; 250 321.5; 250 321.5" keyTimes="0; 0.12; 0.24; 0.36; 0.48; 0.6; 0.72; 0.84; 0.96; 1" keySplines="0 0 0.36 1; 0.65 0 0.36 1; 0.65 0 1 1; 0.65 0 0.36 1; 0.65 0 1 1; 0.65 0 0.36 1; 0.65 0 1 1; 0.65 0 0.36 1; 0 0 1 1" fill="freeze" /><g transform="scale(1,1)"><animateTransform repeatCount="indefinite" type="scale" attributeName="transform" dur="5s" begin="0s" calcMode="spline" values="1 1; 1 0.56; 1 1; 1 0.56; 1 1; 1 0.56; 1 1; 1 0.56; 1 1; 1 1" keyTimes="0; 0.12; 0.24; 0.36; 0.48; 0.6; 0.72; 0.84; 0.96; 1" keySplines="0 0 0.36 1; 0.65 0 0.36 1; 0.65 0 1 1; 0.65 0 0.36 1; 0.65 0 1 1; 0.65 0 0.36 1; 0.65 0 1 1; 0.65 0 0.36 1; 0 0 1 1" fill="freeze" /><g transform="translate(-12,-40.5)"><g id="i2"><rect ry="12" rx="12" height="40" width="24" y="0" x="0" fill="#ffffff" /></g></g></g></g></g><g id="i7"><g transform="translate(210,360.5)"><animateTransform repeatCount="indefinite" type="translate" attributeName="transform" dur="5s" begin="0s" calcMode="spline" values="210 360.5; 210 321; 210 360.5; 210 321; 210 360.5; 210 321; 210 360.5; 210 321; 210 360.5; 210 360.5" keyTimes="0; 0.12; 0.24; 0.36; 0.48; 0.6; 0.72; 0.84; 0.96; 1" keySplines="0 0 0.36 1; 0.65 0 0.36 1; 0.65 0 1 1; 0.65 0 0.36 1; 0.65 0 1 1; 0.65 0 0.36 1; 0.65 0 1 1; 0.65 0 0.36 1; 0 0 1 1" fill="freeze" /><g transform="scale(1,0.5)"><animateTransform repeatCount="indefinite" type="scale" attributeName="transform" dur="5s" begin="0s" calcMode="spline" values="1 0.5; 1 1; 1 0.5; 1 1; 1 0.5; 1 1; 1 0.5; 1 1; 1 0.5; 1 0.5" keyTimes="0; 0.12; 0.24; 0.36; 0.48; 0.6; 0.72; 0.84; 0.96; 1" keySplines="0 0 0.36 1; 0.65 0 0.36 1; 0.65 0 1 1; 0.65 0 0.36 1; 0.65 0 1 1; 0.65 0 0.36 1; 0.65 0 1 1; 0.65 0 0.36 1; 0 0 1 1" fill="freeze" /><g transform="translate(-12,-40.5)"><g id="i2"><rect ry="12" rx="12" height="40" width="24" y="0" x="0" fill="#ffffff" /></g></g></g></g></g><g transform="matrix(1,0,0,1,179.5,252.5)" id="i8"><g id="i5"><rect ry="11.5" rx="11.5" height="23" width="187" y="108" x="68" fill="#ff8eed" /></g><g id="i1"><rect ry="11.5" rx="11.5" height="23" width="109" y="108" x="0" fill="#ec51ef" /></g><g id="i2"><rect ry="15" rx="15" height="108" width="159" y="0" x="96" fill="#ec51ef" /></g></g><g transform="matrix(1,0,0,1,330.5,282.597)" id="i9"><g id="i4"><ellipse ry="14.799" rx="18.929" cy="32.007" cx="26.5" fill="#ff8eed" /></g><g id="i5"><ellipse ry="7.571" rx="7.571" cy="13.078" cx="7.571" fill="#ff8eed" /></g><g id="i1"><ellipse ry="7.571" rx="7.571" cy="7.571" cx="26.844" fill="#ff8eed" /></g><g id="i2"><ellipse ry="7.571" rx="7.571" cy="13.078" cx="45.429" fill="#ff8eed" /></g></g></svg>